PathFileType	4	(X/Y/Z)	 normalP092.trc
DataRate	CameraRate	NumFrames	NumMarkers	Units	OrigDataRate	OrigDataStartFrame	OrigNumFrames
100	100	8	49	M	100	195	204
Frame#	Time	RM1D			RM5D			RM2B			LM1D			LM5D			LM2B			RCAL			LCAL			RLMAL			LLMAL			RSTL			LSTL			RFLE			LFLE			RHFIB			LHFIB			RTTUB			LTTUB			RSSH			LSSH			RTL			LTL			RTAP			RTAD			LTAP			LTAD			RTPP			RTPD			LTPP			LTPD			RPSIS			LPSIS			RASIS			LASIS			T10			T2			IJ			SA			RACR			LACR			RHLE			LHLE			RUSP			LUSP			RCB			LCB			IN			LHME			RHME			
		X1	Y1	Z1	X2	Y2	Z2	X3	Y3	Z3	X4	Y4	Z4	X5	Y5	Z5	X6	Y6	Z6	X7	Y7	Z7	X8	Y8	Z8	X9	Y9	Z9	X10	Y10	Z10	X11	Y11	Z11	X12	Y12	Z12	X13	Y13	Z13	X14	Y14	Z14	X15	Y15	Z15	X16	Y16	Z16	X17	Y17	Z17	X18	Y18	Z18	X19	Y19	Z19	X20	Y20	Z20	X21	Y21	Z21	X22	Y22	Z22	X23	Y23	Z23	X24	Y24	Z24	X25	Y25	Z25	X26	Y26	Z26	X27	Y27	Z27	X28	Y28	Z28	X29	Y29	Z29	X30	Y30	Z30	X31	Y31	Z31	X32	Y32	Z32	X33	Y33	Z33	X34	Y34	Z34	X35	Y35	Z35	X36	Y36	Z36	X37	Y37	Z37	X38	Y38	Z38	X39	Y39	Z39	X40	Y40	Z40	X41	Y41	Z41	X42	Y42	Z42	X43	Y43	Z43	X44	Y44	Z44	X45	Y45	Z45	X46	Y46	Z46	X47	Y47	Z47	X48	Y48	Z48	X49	Y49	Z49	
195	1.9500	1.165045	0.059191	-0.148332	1.118209	0.049962	-0.098783	1.120150	0.077873	-0.126754	0.976807	0.039283	-0.225188	0.940505	0.019606	-0.298964	0.927591	0.046802	-0.257903	0.986369	0.101006	-0.184481	0.779775	0.050720	-0.229005	1.025112	0.107580	-0.126781	0.829360	0.064796	-0.272283	1.039799	0.078916	-0.202451	0.821947	0.040079	-0.199924	1.162375	0.488464	-0.085657	0.916895	0.459148	-0.319825	1.129665	0.434761	-0.084035	0.879861	0.401797	-0.325065	1.184130	0.418460	-0.118632	0.932198	0.388930	-0.270678	1.149328	0.326325	-0.146270	0.890691	0.189354	-0.246661	1.065654	0.658935	-0.047663	0.932008	0.654004	-0.368510	1.129621	0.762485	-0.105710	1.169933	0.678871	-0.100125	1.048605	0.712732	-0.311598	1.024288	0.615784	-0.300346	0.974674	0.631658	-0.128378	1.025389	0.572316	-0.141523	0.836779	0.678407	-0.304665	0.835939	0.609042	-0.290415	0.848334	0.949822	-0.149479	0.840379	0.957627	-0.248966	1.043477	0.912207	-0.097738	1.038898	0.927363	-0.327333	0.849788	1.111651	-0.205429	0.831905	1.329757	-0.198758	0.982306	1.321493	-0.199774	1.006765	1.285953	-0.194375	0.907365	1.339579	-0.024816	0.915773	1.358638	-0.373168	0.872433	1.038402	0.035660	0.906753	1.056002	-0.458881	0.915602	0.816503	0.087671	1.092547	0.915924	-0.538828	1.005220	1.474525	-0.135100	0.998660	1.482626	-0.259217	0.860694	1.408153	-0.195026	0.915814	1.030537	-0.390926	0.868158	1.019465	-0.037095	
196	1.9600	1.211502	0.060694	-0.147438	1.164548	0.047688	-0.098485	1.164713	0.075592	-0.126335	0.977150	0.039218	-0.225116	0.940495	0.019642	-0.298882	0.928737	0.046617	-0.257305	1.040344	0.093334	-0.189332	0.780270	0.051454	-0.228305	1.068742	0.098352	-0.127716	0.829775	0.065169	-0.271773	1.085927	0.070879	-0.203051	0.822449	0.040340	-0.199427	1.178387	0.488214	-0.086866	0.922654	0.458591	-0.319925	1.148540	0.432790	-0.085465	0.884279	0.401697	-0.324696	1.203576	0.419551	-0.120343	0.936489	0.388010	-0.270909	1.174648	0.325575	-0.147278	0.893387	0.189169	-0.247293	1.080871	0.658380	-0.047336	0.940534	0.653094	-0.368171	1.143907	0.762651	-0.106096	1.184734	0.679288	-0.099573	1.058164	0.709756	-0.311934	1.033143	0.612529	-0.299402	0.989131	0.629621	-0.126169	1.038270	0.569860	-0.139283	0.846618	0.679458	-0.302998	0.844782	0.609925	-0.289217	0.861850	0.948215	-0.148512	0.853453	0.956290	-0.247737	1.057383	0.910455	-0.098311	1.051551	0.925054	-0.327903	0.863224	1.109815	-0.205525	0.845307	1.327979	-0.199425	0.995624	1.319913	-0.199838	1.020036	1.284354	-0.194368	0.919636	1.337722	-0.025325	0.929738	1.356980	-0.373434	0.880557	1.037491	0.035665	0.923322	1.054640	-0.460882	0.919414	0.815344	0.089566	1.116502	0.923079	-0.538854	1.018547	1.472238	-0.134923	1.012382	1.480652	-0.259068	0.874135	1.406389	-0.195567	0.932535	1.028681	-0.393002	0.877398	1.018232	-0.036950	
197	1.9700	1.257115	0.063332	-0.146343	1.210879	0.046846	-0.097962	1.209161	0.074592	-0.125805	0.977410	0.039200	-0.225064	0.940411	0.019727	-0.298738	0.928939	0.046635	-0.256995	1.071077	0.076133	-0.185798	0.780708	0.052224	-0.227538	1.111897	0.090129	-0.127959	0.830246	0.065550	-0.271211	1.132110	0.064215	-0.203084	0.823054	0.040748	-0.198774	1.193699	0.487407	-0.088167	0.929015	0.457789	-0.319717	1.167316	0.430601	-0.086102	0.889353	0.401393	-0.324213	1.221841	0.420063	-0.121832	0.941152	0.386833	-0.270846	1.199488	0.324865	-0.147870	0.894875	0.188818	-0.246153	1.095649	0.657330	-0.047044	0.949061	0.651990	-0.367821	1.157786	0.761968	-0.106394	1.199231	0.678853	-0.099392	1.068398	0.707264	-0.311978	1.039865	0.609448	-0.299275	1.002043	0.626898	-0.123403	1.050346	0.566767	-0.136579	0.856303	0.680158	-0.301479	0.853258	0.610414	-0.288193	0.875418	0.946265	-0.147549	0.866563	0.954604	-0.246522	1.071356	0.908323	-0.098781	1.064196	0.922463	-0.328420	0.876712	1.107766	-0.205448	0.858840	1.326030	-0.200164	1.009086	1.317957	-0.199885	1.033465	1.282433	-0.194321	0.932012	1.335612	-0.025778	0.943846	1.355069	-0.373647	0.888880	1.036309	0.035650	0.939797	1.053050	-0.462842	0.923702	0.814128	0.091500	1.138979	0.929813	-0.539142	1.031842	1.469808	-0.134716	1.026178	1.478501	-0.258811	0.887675	1.404376	-0.196021	0.949229	1.026478	-0.395104	0.886784	1.016812	-0.036667	
198	1.9800	1.301199	0.066580	-0.145439	1.256457	0.047219	-0.097339	1.252847	0.074624	-0.125043	0.977766	0.039128	-0.224974	0.940393	0.019794	-0.298663	0.929132	0.046667	-0.256664	1.115090	0.066819	-0.185721	0.781232	0.053112	-0.226737	1.154799	0.083151	-0.127951	0.830998	0.066035	-0.271029	1.176390	0.058611	-0.202606	0.823614	0.041106	-0.198208	1.207904	0.485903	-0.088896	0.935592	0.456706	-0.319212	1.183448	0.427843	-0.086800	0.895001	0.400962	-0.323665	1.239156	0.420187	-0.122811	0.946245	0.385536	-0.270584	1.223814	0.324074	-0.148120	0.897177	0.188354	-0.245658	1.110253	0.655803	-0.046924	0.954676	0.650930	-0.366230	1.171505	0.760581	-0.106768	1.213480	0.677540	-0.099477	1.078208	0.704260	-0.312513	1.048287	0.607995	-0.298737	1.013255	0.623757	-0.120157	1.061897	0.563380	-0.133543	0.868197	0.680335	-0.300254	0.862179	0.610442	-0.287420	0.889070	0.944029	-0.146674	0.879538	0.952670	-0.245207	1.085464	0.905806	-0.099158	1.076926	0.919717	-0.328809	0.890111	1.105638	-0.205219	0.872395	1.323957	-0.200705	1.022772	1.315718	-0.199787	1.047126	1.280142	-0.194265	0.944549	1.333304	-0.026142	0.958180	1.352989	-0.373770	0.897467	1.035079	0.035654	0.956231	1.051271	-0.464734	0.929240	0.813081	0.093647	1.160675	0.936226	-0.539352	1.045106	1.467355	-0.134444	1.039974	1.476210	-0.258492	0.901282	1.402197	-0.196393	0.965898	1.024038	-0.397146	0.896415	1.015169	-0.036347	
199	1.9900	1.344315	0.071541	-0.144489	1.300577	0.049130	-0.096757	1.295536	0.076048	-0.124273	0.978079	0.038987	-0.224694	0.940344	0.019848	-0.298485	0.929435	0.046684	-0.256485	1.158673	0.059440	-0.185364	0.781824	0.054188	-0.225915	1.196903	0.077759	-0.127538	0.830949	0.066729	-0.269897	1.220668	0.055346	-0.202556	0.824211	0.041613	-0.197560	1.221180	0.483537	-0.089316	0.941940	0.455445	-0.318628	1.199031	0.424359	-0.087235	0.901046	0.400480	-0.323150	1.255508	0.419689	-0.123137	0.951736	0.384178	-0.270199	1.247404	0.323391	-0.147839	0.899583	0.187801	-0.245057	1.124171	0.653825	-0.046945	0.963812	0.649669	-0.366280	1.185131	0.758429	-0.107233	1.227419	0.675339	-0.099798	1.090271	0.702062	-0.312213	1.057403	0.606050	-0.298890	1.024063	0.620809	-0.116671	1.072230	0.559717	-0.130109	0.878336	0.680286	-0.298997	0.870751	0.610277	-0.286390	0.902838	0.941456	-0.145763	0.892750	0.950349	-0.243959	1.099725	0.903046	-0.099434	1.089641	0.916910	-0.329197	0.903544	1.103429	-0.204919	0.886002	1.321769	-0.201105	1.036580	1.313178	-0.199683	1.060999	1.277579	-0.194112	0.957319	1.330870	-0.026363	0.972658	1.350818	-0.373818	0.906284	1.033616	0.035747	0.972532	1.049355	-0.466503	0.932956	0.811379	0.095211	1.181801	0.942365	-0.539336	1.058473	1.464813	-0.134097	1.053850	1.473808	-0.258033	0.914941	1.399876	-0.196632	0.983141	1.021416	-0.398957	0.906210	1.013410	-0.035960	
200	2.0000	1.385539	0.077651	-0.143717	1.342838	0.052643	-0.095908	1.336677	0.078821	-0.123552	0.979074	0.039032	-0.225294	0.940292	0.019845	-0.298311	0.930176	0.046803	-0.257286	1.202756	0.054518	-0.185401	0.782615	0.055437	-0.224873	1.237698	0.074033	-0.126572	0.832743	0.067410	-0.269792	1.262780	0.053734	-0.202017	0.825212	0.042872	-0.195921	1.233580	0.480173	-0.089478	0.949015	0.454383	-0.318357	1.213743	0.420269	-0.087080	0.907357	0.400025	-0.322623	1.270946	0.418539	-0.122807	0.957680	0.382879	-0.269820	1.270065	0.322777	-0.147083	0.902305	0.187429	-0.244537	1.137315	0.651379	-0.047029	0.973321	0.648344	-0.366334	1.198775	0.755473	-0.107685	1.240977	0.672147	-0.100415	1.099484	0.699386	-0.312917	1.066726	0.603867	-0.299396	1.035755	0.618463	-0.113324	1.081740	0.556448	-0.126305	0.888648	0.680206	-0.297936	0.880368	0.609942	-0.285572	0.916727	0.938623	-0.144915	0.905881	0.947723	-0.242600	1.114107	0.900150	-0.099541	1.102478	0.914067	-0.329467	0.917041	1.101108	-0.204453	0.899675	1.319464	-0.201374	1.050567	1.310443	-0.199455	1.075021	1.274810	-0.193941	0.970273	1.328385	-0.026491	0.987318	1.348569	-0.373768	0.915641	1.032067	0.035906	0.989516	1.048161	-0.469955	0.938769	0.810041	0.097120	1.202135	0.948179	-0.539191	1.071901	1.462270	-0.133680	1.067789	1.471329	-0.257526	0.928615	1.397492	-0.196758	0.999495	1.018790	-0.400857	0.916431	1.011470	-0.035477	
201	2.0100	1.424054	0.084131	-0.143095	1.383118	0.057269	-0.095293	1.375447	0.082502	-0.122609	0.979035	0.038620	-0.225589	0.940185	0.020133	-0.297790	0.930192	0.046549	-0.254822	1.243097	0.050591	-0.184013	0.783545	0.056906	-0.223071	1.276339	0.071947	-0.124974	0.833510	0.068277	-0.268820	1.302438	0.053755	-0.200415	0.826421	0.043614	-0.194593	1.245214	0.476057	-0.089691	0.956371	0.453397	-0.318217	1.227833	0.415905	-0.086881	0.913799	0.399590	-0.322021	1.285585	0.416901	-0.121878	0.964043	0.381581	-0.269632	1.291875	0.322336	-0.145881	0.904190	0.186473	-0.242882	1.150015	0.648758	-0.046811	0.983215	0.647080	-0.366358	1.212379	0.751865	-0.108076	1.253945	0.667810	-0.101509	1.110491	0.696696	-0.313535	1.076468	0.601507	-0.300018	1.048313	0.616237	-0.110184	1.092321	0.553479	-0.122823	0.899212	0.680127	-0.296989	0.890182	0.609720	-0.284753	0.930716	0.935708	-0.144073	0.919329	0.944724	-0.241282	1.128592	0.897238	-0.099450	1.115494	0.911309	-0.329649	0.930608	1.098687	-0.203909	0.913366	1.317037	-0.201527	1.064656	1.307614	-0.199127	1.089130	1.271906	-0.193664	0.983555	1.325937	-0.026531	1.002151	1.346305	-0.373604	0.925224	1.030367	0.035530	1.005618	1.046496	-0.471630	0.945204	0.808719	0.099025	1.221705	0.953571	-0.538903	1.085412	1.459812	-0.133141	1.081742	1.468867	-0.256957	0.942327	1.395036	-0.196724	1.015751	1.016187	-0.402531	0.926966	1.009475	-0.034915	
202	2.0200	1.459781	0.091204	-0.142410	1.420371	0.061429	-0.094316	1.411568	0.087080	-0.121323	0.979233	0.038498	-0.225399	0.940011	0.020266	-0.297426	0.930484	0.046916	-0.254760	1.279811	0.048577	-0.181619	0.784175	0.058702	-0.222495	1.312566	0.071663	-0.122921	0.834233	0.069568	-0.268174	1.338955	0.055002	-0.198270	0.826633	0.044923	-0.194022	1.256445	0.471689	-0.090088	0.962441	0.451765	-0.316968	1.241421	0.411847	-0.086817	0.920504	0.399205	-0.321127	1.299689	0.415123	-0.120617	0.970975	0.380128	-0.269565	1.312830	0.322195	-0.144320	0.908222	0.186876	-0.242612	1.162845	0.646121	-0.045925	0.993294	0.645776	-0.366324	1.226496	0.747623	-0.108639	1.266302	0.662151	-0.103547	1.121785	0.693847	-0.314240	1.086619	0.598987	-0.300663	1.061314	0.613921	-0.107410	1.104490	0.550266	-0.120120	0.910033	0.680168	-0.295987	0.900430	0.609612	-0.283912	0.944821	0.932450	-0.143273	0.932915	0.941499	-0.239883	1.143221	0.894428	-0.099111	1.128634	0.908577	-0.329774	0.944397	1.096209	-0.203280	0.927140	1.314507	-0.201545	1.078790	1.304746	-0.198735	1.103369	1.268990	-0.193318	0.996875	1.323414	-0.026429	1.017052	1.344012	-0.373260	0.935412	1.028772	0.035947	1.021445	1.044717	-0.472839	0.951953	0.807354	0.101166	1.240511	0.958507	-0.538515	1.098930	1.457349	-0.132536	1.095742	1.466369	-0.256263	0.956084	1.392480	-0.196616	1.031751	1.013767	-0.403870	0.937898	1.007452	-0.034275	
